<?xml version="1.0" encoding="UTF-8"?>
<svg id="Layer_1" data-name="Layer 1" xmlns="http://www.w3.org/2000/svg" viewBox="0 0 1080 418.74">
  <defs>
    <style>
      .cls-1 {
        fill: #333;
      }

      .cls-1, .cls-2 {
        stroke-width: 0px;
      }

      .cls-2 {
        fill: #f15635;
      }
    </style>
  </defs>
  <path class="cls-1" d="M228.87,328.3c-11.74,0-21.28-9.56-21.28-21.33l-.02-97.27c0-44.87-36.24-79.99-82.49-79.99s-82.49,36.34-82.49,81.01l-.03,95.63c.06,12.38-9.5,21.95-21.25,21.95S0,318.73,0,306.97v-104.13c4.84-65.34,59.76-116.18,125.07-116.18s120.28,48.84,125.07,113.61l.05,106.7c0,11.76-9.57,21.33-21.33,21.33"/>
  <path class="cls-1" d="M502.43,418.74c-10.46,0-19.24-7.76-20.84-17.84h-.26l-.05-3.01v-96.41c-22.3,19.37-51.35,30.36-80.71,30.36-67.72,0-122.81-55.09-122.81-122.82s55.1-122.81,122.81-122.81,118.98,50.94,122.66,115.99l.2,194.58c.08,12.51-9.37,21.97-21.01,21.97M400.57,128.77c-44.24,0-80.24,35.99-80.24,80.24s35.99,80.25,80.24,80.25,80.24-36.01,80.24-80.25-35.99-80.24-80.24-80.24"/>
  <path class="cls-1" d="M678.72,332.07c-65.32,0-120.23-50.84-125.04-115.72v-104.6c-.01-11.74,9.53-21.32,21.28-21.32s21.31,9.58,21.31,21.32l-.04,96.27c0,44.68,37.01,81.02,82.49,81.02s82.49-35.14,82.49-79.98l.08-54.79-.03-42.18c-.03-12.07,9.53-21.65,21.27-21.65s21.31,9.58,21.31,21.32v105.99c-4.82,65.49-58.59,114.33-125.12,114.33"/>
  <path class="cls-1" d="M957.2,332.54c-65.1,0-118.99-50.94-122.67-115.99l-.21-194.57c-.07-12.52,9.38-21.98,21.02-21.98,10.45,0,19.24,7.77,20.84,17.85h.24l.08,3.01v96.4c22.3-19.37,51.34-30.34,80.71-30.34,67.7,0,122.8,55.09,122.8,122.82s-55.1,122.81-122.8,122.81M957.2,129.48c-44.26,0-80.25,36-80.25,80.25s35.99,80.24,80.25,80.24,80.25-35.99,80.25-80.24-36.01-80.25-80.25-80.25"/>
  <path class="cls-2" d="M634.01,49.96v.08h89.48v-.08c11.55-.17,20.87-9.55,20.87-21.15s-9.47-21.17-21.15-21.17h-88.92c-11.68,0-21.16,9.49-21.16,21.17s9.33,20.98,20.89,21.15"/>
</svg>