<?xml version="1.0" encoding="UTF-8"?>
<svg id="Layer_1" data-name="Layer 1" xmlns="http://www.w3.org/2000/svg" viewBox="0 0 742.9 800.05">
  <defs>
    <style>
      .cls-1 {
        fill: #659ad2;
      }

      .cls-1, .cls-2, .cls-3, .cls-4 {
        stroke-width: 0px;
      }

      .cls-2 {
        fill: #004482;
      }

      .cls-3 {
        fill: #00599c;
      }

      .cls-4 {
        fill: #fff;
      }
    </style>
  </defs>
  <path class="cls-1" d="M742.89,235.26c.27-12.45-2.87-24.75-9.09-35.54-6.52-10.6-15.75-19.27-26.74-25.11-98.93-54.63-197.91-109.23-296.94-163.8-24.35-14.65-54.85-14.38-78.94.69-39.37,22.26-236.42,130.43-295.17,163.03C13.19,185.98-.87,209.7.04,235.23v329.68c-.29,12.17,2.67,24.2,8.57,34.86,6.56,10.9,15.99,19.8,27.26,25.71,58.74,32.6,255.82,140.77,295.2,163.03,24.08,15.08,54.58,15.37,78.94.74,98.86-54.68,197.77-109.28,296.74-163.8,11.27-5.92,20.7-14.82,27.29-25.71,5.9-10.65,8.86-22.68,8.57-34.86V235.26"/>
  <path class="cls-3" d="M730,604.94c1.49-1.65,2.9-3.39,4.2-5.2,5.9-10.65,8.86-22.68,8.57-34.86V235.26c.27-12.45-2.87-24.75-9.09-35.54-1.03-1.69-2.54-3-3.71-4.57l-358.51,204.91,358.54,204.88Z"/>
  <path class="cls-2" d="M730,604.94l-358.54-204.88L12.93,604.94c6.06,8.51,13.96,15.54,23.11,20.57,58.74,32.6,255.82,140.77,295.2,163.03,24.08,15.08,54.58,15.37,78.94.74,98.86-54.68,197.77-109.28,296.74-163.8,9.14-5.03,17.03-12.05,23.09-20.54Z"/>
  <path class="cls-4" d="M474.32,457.77c-31.87,56.68-103.66,76.79-160.34,44.92s-76.79-103.66-44.92-160.34c31.87-56.68,103.66-76.79,160.34-44.92,18.35,10.32,33.59,25.36,44.15,43.57l103.28-59.23c-66.01-113.28-211.35-151.6-324.63-85.59-72.61,42.31-117.43,119.85-117.87,203.88-.05,41.29,10.79,81.86,31.43,117.63,65.74,113.62,211.14,152.44,324.76,86.7,36.15-20.91,66.15-50.98,86.98-87.18l-103.17-59.43"/>
  <polygon class="cls-4" points="602.2 386.85 575.75 386.85 575.75 360.54 549.32 360.54 549.32 386.85 522.86 386.85 522.86 413.22 549.32 413.22 549.32 439.51 575.75 439.51 575.75 413.22 602.2 413.22 602.2 386.85"/>
  <polygon class="cls-4" points="701.43 386.85 674.97 386.85 674.97 360.54 648.52 360.54 648.52 386.85 622.06 386.85 622.06 413.22 648.52 413.22 648.52 439.51 674.97 439.51 674.97 413.22 701.43 413.22 701.43 386.85"/>
</svg>