<?xml version="1.0" encoding="UTF-8"?>
<svg id="Layer_2" data-name="Layer 2" xmlns="http://www.w3.org/2000/svg" viewBox="0 0 339.79 400">
  <defs>
    <style>
      .cls-1 {
        fill: #0062ff;
        fill-rule: evenodd;
        stroke-width: 0px;
      }
    </style>
  </defs>
  <g id="Artboard">
    <g id="Group-3">
      <g id="Group-4">
        <path id="D-Copy" class="cls-1" d="M.03,363.77c0,22.12,14.12,36.23,36.23,36.23h105.39c63.05,0,114.34-21.17,149.16-58.35H0v22.12h.03ZM141.7,0H36.3C14.18,0,.07,14.12.07,36.23v22.59h290.82C255.57,21.17,204.27,0,141.7,0ZM233.45,256.95c0,17.9,11.28,29.18,29.18,29.18h63.05c7.06-17.9,11.75-37.18,14.12-58.35h-77.16c-17.9,0-29.18,11.75-29.18,29.18h0ZM145.92,143.05c0,17.9,11.28,29.18,29.18,29.18h164.69c-2.36-21.17-7.06-40.46-14.12-58.35h-150.58c-17.9,0-29.18,11.75-29.18,29.18h0ZM175.1,256.95c0-17.9-11.28-29.18-29.18-29.18H.03v58.35h145.88c17.9,0,29.18-11.28,29.18-29.18ZM87.56,143.05c0-17.9-11.28-29.18-29.18-29.18H.03v58.35h58.35c17.9,0,29.18-11.28,29.18-29.18Z"/>
      </g>
    </g>
  </g>
</svg>