<?xml version="1.0" encoding="UTF-8"?>
<svg id="Layer_1" data-name="Layer 1" xmlns="http://www.w3.org/2000/svg" viewBox="0 0 800 800">
  <defs>
    <style>
      .cls-1 {
        fill: #300;
      }

      .cls-1, .cls-2 {
        stroke-width: 0px;
      }

      .cls-2 {
        fill: #ff9a00;
      }
    </style>
  </defs>
  <path class="cls-1" d="M0,289.52c0-101.34,0-152.01,19.72-190.72,17.35-34.05,45.03-61.73,79.08-79.08C137.51,0,188.18,0,289.52,0h220.95c101.34,0,152.01,0,190.72,19.72,34.05,17.35,61.73,45.03,79.08,79.08,19.72,38.71,19.72,89.38,19.72,190.72v220.95c0,101.34,0,152.01-19.72,190.72-17.35,34.05-45.03,61.73-79.08,79.08-38.71,19.72-89.38,19.72-190.72,19.72h-220.95c-101.34,0-152.01,0-190.72-19.72-34.05-17.35-61.73-45.03-79.08-79.08C0,662.49,0,611.82,0,510.48v-220.95Z"/>
  <path class="cls-2" d="M389.21,489.91h-108.47l-22.07,70.32c-.61,2.61-3.02,4.46-5.63,4.33h-54.94c-3.13,0-4.23-1.77-3.29-5.3l93.92-277.41c.94-2.89,1.88-6.18,2.82-9.87,1.23-6.43,1.86-12.96,1.88-19.51-.27-1.93,1.43-3.64,3.29-3.37h74.66c2.19,0,3.44.8,3.75,2.41l106.6,308.24c.94,3.21,0,4.82-2.82,4.82h-61.05c-2.14.24-4.18-1.22-4.69-3.37l-23.95-71.28ZM297.65,429.22h74.2c-12.19-41.65-25.95-82.76-37.1-124.74-12.03,42.05-25.15,83.93-37.1,124.74Z"/>
  <path class="cls-2" d="M545.11,300.15c-4.79.2-9.57-.65-14.02-2.47-4.45-1.82-8.47-4.59-11.81-8.12-3.33-3.68-5.91-8-7.6-12.72-1.69-4.71-2.46-9.72-2.26-14.74-.17-4.97.68-9.91,2.5-14.52,1.82-4.61,4.57-8.77,8.07-12.21,3.46-3.41,7.54-6.08,12.02-7.85,4.47-1.78,9.25-2.63,14.04-2.5,11.27,0,20.12,3.45,26.53,10.35,3.24,3.59,5.76,7.8,7.41,12.38,1.65,4.59,2.41,9.46,2.22,14.35.2,5.03-.59,10.06-2.33,14.78-1.73,4.72-4.38,9.03-7.77,12.67-3.54,3.58-7.77,6.37-12.42,8.2-4.65,1.82-9.61,2.64-14.58,2.4ZM512.71,559.74v-230.22c0-2.89,1.25-4.33,3.76-4.33h57.76c2.5,0,3.75,1.45,3.75,4.33v230.22c0,3.21-1.25,4.82-3.75,4.82h-57.29c-2.82,0-4.23-1.6-4.23-4.82Z"/>
</svg>