<?xml version="1.0" encoding="utf-8"?>
<!-- Generator: Adobe Illustrator 28.4.1, SVG Export Plug-In . SVG Version: 6.00 Build 0)  -->
<svg version="1.1" id="Layer_1" xmlns="http://www.w3.org/2000/svg" xmlns:xlink="http://www.w3.org/1999/xlink" x="0px" y="0px"
	 viewBox="0 0 800 800" style="enable-background:new 0 0 800 800;" xml:space="preserve">
<style type="text/css">
	.st0{fill:url(#SVGID_1_);}
	.st1{fill:url(#SVGID_00000072977724542997253280000000222759675805671352_);}
	.st2{fill:url(#SVGID_00000183211608924144529510000000118188104150589349_);}
	.st3{fill:url(#SVGID_00000031192015140289646690000010633530766228611715_);}
	.st4{fill:url(#SVGID_00000101092439049755942620000006536652466369715624_);}
	.st5{fill:url(#SVGID_00000129893093436794920560000004495451144693450939_);}
	.st6{fill:url(#SVGID_00000085247929320751672650000006223116569345879438_);}
</style>
<linearGradient id="SVGID_1_" gradientUnits="userSpaceOnUse" x1="-746.491" y1="1012.2106" x2="-733.829" y2="1009.7494" gradientTransform="matrix(35.925 0 0 35.925 27215 -36001.7266)">
	<stop  offset="0" style="stop-color:#0F6067"/>
	<stop  offset="0.5" style="stop-color:#05ABAC"/>
	<stop  offset="1" style="stop-color:#58BEC4"/>
</linearGradient>
<path class="st0" d="M560,41.8h240L479.1,634.6c0,0-54.1-157.1-77.3-213.1"/>
<linearGradient id="SVGID_00000005951837912948697650000000954259824081672873_" gradientUnits="userSpaceOnUse" x1="-737.8149" y1="1023.8799" x2="-736.0051" y2="1003.1934" gradientTransform="matrix(35.925 0 0 35.925 27215 -36001.7266)">
	<stop  offset="0" style="stop-color:#117C83"/>
	<stop  offset="0.5" style="stop-color:#21B5B5"/>
	<stop  offset="1" style="stop-color:#7ED4D4"/>
</linearGradient>
<path style="fill:url(#SVGID_00000005951837912948697650000000954259824081672873_);" d="M619.1,774.8H800v-733
	C799.9,424.8,638.9,774.8,619.1,774.8z"/>
<linearGradient id="SVGID_00000166675931934479326420000017440619867297200821_" gradientUnits="userSpaceOnUse" x1="-748.2692" y1="1003.506" x2="-753.044" y2="1018.1996" gradientTransform="matrix(35.925 0 0 35.925 27215 -36001.7266)">
	<stop  offset="0" style="stop-color:#9ACCD3"/>
	<stop  offset="0.5" style="stop-color:#72AEB3"/>
	<stop  offset="1" style="stop-color:#317D7F"/>
</linearGradient>
<path style="fill:url(#SVGID_00000166675931934479326420000017440619867297200821_);" d="M479.1,634.6H329.7L0,41.8
	c58.5-7.4,175.3-17.5,233.1-22.2L479.1,634.6z"/>
<linearGradient id="SVGID_00000071557389672843429360000004585020304567063685_" gradientUnits="userSpaceOnUse" x1="-758.5032" y1="1020.294" x2="-750.4884" y2="1017.6898" gradientTransform="matrix(35.925 0 0 35.925 27215 -36001.7266)">
	<stop  offset="0" style="stop-color:#21626E"/>
	<stop  offset="0.5" style="stop-color:#157C84"/>
	<stop  offset="1" style="stop-color:#03A3A5"/>
</linearGradient>
<path style="fill:url(#SVGID_00000071557389672843429360000004585020304567063685_);" d="M191.2,400.5
	C141.7,596.2-0.1,780.6,0,780.4c164.3,0,199.7-23.9,199.7-36.5V415.4C196.9,410.6,194.1,405.5,191.2,400.5z"/>
<linearGradient id="SVGID_00000056393951062049463220000005238155798184347542_" gradientUnits="userSpaceOnUse" x1="-752.3075" y1="1008.6892" x2="-762.5626" y2="1018.2527" gradientTransform="matrix(35.925 0 0 35.925 27215 -36001.7266)">
	<stop  offset="0" style="stop-color:#0B7C81"/>
	<stop  offset="0.5" style="stop-color:#068D90"/>
	<stop  offset="1" style="stop-color:#16B1B1"/>
</linearGradient>
<path style="fill:url(#SVGID_00000056393951062049463220000005238155798184347542_);" d="M0,41.8v738.6
	c89.9-148.6,142.3-245.7,188.6-384.3C74.3,194.1,0,41.8,0,41.8z"/>
<linearGradient id="SVGID_00000064316092350327031500000000481207789172430517_" gradientUnits="userSpaceOnUse" x1="-742.8087" y1="1020.3638" x2="-737.569" y2="1016.1208" gradientTransform="matrix(35.925 0 0 35.925 27215 -36001.7266)">
	<stop  offset="0" style="stop-color:#0A8A8F"/>
	<stop  offset="0.5" style="stop-color:#0F7C82"/>
	<stop  offset="1" style="stop-color:#1A5964"/>
</linearGradient>
<polyline style="fill:url(#SVGID_00000064316092350327031500000000481207789172430517_);" points="606.7,745.8 619.1,774.8 
	619.1,389.9 606.7,410.7 "/>
<linearGradient id="SVGID_00000172426088960054252290000001020726772822257819_" gradientUnits="userSpaceOnUse" x1="-734.8777" y1="1015.3277" x2="-740.4504" y2="1011.845" gradientTransform="matrix(35.925 0 0 35.925 27215 -36001.7266)">
	<stop  offset="0" style="stop-color:#256A77"/>
	<stop  offset="0.5" style="stop-color:#0D9499"/>
	<stop  offset="1" style="stop-color:#06A0A2"/>
</linearGradient>
<path style="fill:url(#SVGID_00000172426088960054252290000001020726772822257819_);" d="M618.5,390.7v382.9l0.5,1.2
	c12.9,0,180.9-414.3,180.9-733C799.9,41.8,697.3,255.6,618.5,390.7z"/>
</svg>
