<?xml version="1.0" encoding="utf-8"?>
<!-- Generator: Adobe Illustrator 28.4.1, SVG Export Plug-In . SVG Version: 6.00 Build 0)  -->
<svg version="1.1" id="Layer_1" xmlns="http://www.w3.org/2000/svg" xmlns:xlink="http://www.w3.org/1999/xlink" x="0px" y="0px"
	 viewBox="0 0 800 800" style="enable-background:new 0 0 800 800;" xml:space="preserve">
<path d="M518.6,400l140-241.6l67.7,241.8l-67.7,241.7l-140-241.7V400z M450.3,439.3l140,241.8l-243.9-62.5L170.3,439.3L450.3,439.3z
	 M590.3,119l-140,241.8h-280l176.2-179.3L590.3,119L590.3,119z M790.3,317.8L704.8,0L386,85.2l-47.2,83l-95.8-0.7L9.7,400L243,632.6
	l95.7-0.7l47.3,83L704.8,800l85.3-317.7L741.7,400L790.3,317.8z"/>
</svg>
