<?xml version="1.0" encoding="utf-8"?>
<!-- Generator: Adobe Illustrator 28.4.1, SVG Export Plug-In . SVG Version: 6.00 Build 0)  -->
<svg version="1.1" id="Layer_1" xmlns="http://www.w3.org/2000/svg" xmlns:xlink="http://www.w3.org/1999/xlink" x="0px" y="0px"
	 viewBox="0 0 800 800" style="enable-background:new 0 0 800 800;" xml:space="preserve">
<style type="text/css">
	.st0{fill:url(#SVGID_1_);}
	.st1{fill:url(#SVGID_00000062880512441787706430000009639033952419480988_);}
	.st2{fill:url(#SVGID_00000049200383143064904710000003557751698870810501_);}
</style>
<g>
	
		<linearGradient id="SVGID_1_" gradientUnits="userSpaceOnUse" x1="-106.2514" y1="935.44" x2="-106.2514" y2="903.44" gradientTransform="matrix(25 0 0 -25 3336 23386)">
		<stop  offset="0" style="stop-color:#32B5F1"/>
		<stop  offset="1" style="stop-color:#2B9FED"/>
	</linearGradient>
	<path class="st0" d="M600,31.9c0-25.1-28.1-25.1-40.6-22c17.5-13.8,38-10.5,45.3-6.3l169,82.8c16.1,7.9,26.3,24.3,26.3,42.3v545
		c0,18.2-10.5,34.8-26.9,42.6l-159,75.2c-10.9,4.7-34.7,16.3-54.7,0c25,4.7,38.5-13.1,40.6-25.1V31.9z"/>
	
		<linearGradient id="SVGID_00000003070229423116125000000003357783650689928346_" gradientUnits="userSpaceOnUse" x1="-109.5028" y1="931.4786" x2="-132.3372" y2="912.3116" gradientTransform="matrix(25 0 0 -25 3336 23386)">
		<stop  offset="0" style="stop-color:#0F6FB3"/>
		<stop  offset="0.2706" style="stop-color:#1279B7"/>
		<stop  offset="0.4214" style="stop-color:#1176B5"/>
		<stop  offset="0.6182" style="stop-color:#0E69AC"/>
		<stop  offset="0.8553" style="stop-color:#0F70AF"/>
		<stop  offset="1" style="stop-color:#0F6DAD"/>
	</linearGradient>
	<path style="fill:url(#SVGID_00000003070229423116125000000003357783650689928346_);" d="M561.5,9.5c13.3-2.6,38.6-1.4,38.6,22.4
		v187.6L87.8,607c-9,6.8-21.6,5.6-29.2-2.6L5.8,547.3c-8.3-8.9-7.7-23,1.3-31.2L559.4,9.9L561.5,9.5z"/>
	
		<linearGradient id="SVGID_00000083084851049544041700000010199748868677106066_" gradientUnits="userSpaceOnUse" x1="-132.2375" y1="926.1732" x2="-109.4673" y2="907.3196" gradientTransform="matrix(25 0 0 -25 3336 23386)">
		<stop  offset="0" style="stop-color:#1791D2"/>
		<stop  offset="1" style="stop-color:#1173C5"/>
	</linearGradient>
	<path style="fill:url(#SVGID_00000083084851049544041700000010199748868677106066_);" d="M600.1,582L87.8,194.5
		c-9-6.8-21.6-5.6-29.2,2.6L5.8,254.2c-8.3,8.9-7.7,23,1.3,31.2l552.3,506.2c25,4.7,38.5-13.1,40.6-25.1V582z"/>
</g>
</svg>
