<?xml version="1.0" encoding="UTF-8"?>
<svg id="Layer_1" data-name="Layer 1" xmlns="http://www.w3.org/2000/svg" viewBox="0 0 800 800">
  <defs>
    <style>
      .cls-1 {
        fill: #00005b;
      }

      .cls-1, .cls-2 {
        stroke-width: 0px;
      }

      .cls-2 {
        fill: #99f;
      }
    </style>
  </defs>
  <path class="cls-1" d="M0,289.52c0-101.34,0-152.01,19.72-190.72,17.35-34.05,45.03-61.73,79.08-79.08C137.51,0,188.18,0,289.52,0h220.95c101.34,0,152.01,0,190.72,19.72,34.05,17.35,61.73,45.03,79.08,79.08,19.72,38.71,19.72,89.38,19.72,190.72v220.95c0,101.34,0,152.01-19.72,190.72-17.35,34.05-45.03,61.73-79.08,79.08-38.71,19.72-89.38,19.72-190.72,19.72h-220.95c-101.34,0-152.01,0-190.72-19.72-34.05-17.35-61.73-45.03-79.08-79.08C0,662.49,0,611.82,0,510.48v-220.95Z"/>
  <path class="cls-2" d="M344.73,489.1h-108.47l-22.07,70.45c-.61,2.61-3.02,4.46-5.64,4.33h-54.94c-3.13,0-4.23-1.77-3.29-5.3l93.92-276.27c.94-2.89,1.88-5.71,2.82-9.41,1.23-6.43,1.86-12.96,1.88-19.51-.27-1.94,1.4-3.65,3.29-3.37h74.66c2.19,0,3.44.8,3.75,2.41l106.6,306.63c.94,3.21,0,4.82-2.82,4.82h-61.05c-2.14.24-4.18-1.22-4.69-3.37l-23.95-71.41ZM253.17,429.69h74.2c-12.19-41.66-25.95-82.76-37.1-124.74-12.64,43.55-24.3,83.93-37.1,124.74Z"/>
  <path class="cls-2" d="M516.52,461.89c4.32,35.77,34.36,52.83,67.62,52.1,18.76-.37,38.8-3.28,56.33-10.37,1.56-1.28,2.35-.48,2.35,2.41v45.75c.15,2.38-.85,4.51-2.82,5.78-21.79,9.89-46.79,12.88-70.42,12.5-70.45,0-118.82-49.63-118.8-121.85-.19-68.43,44.21-126.17,113.17-126.17,58.45-1.51,98.92,45.28,99.08,103.54,0,10.61-.59,21.26-1.88,31.79-.25,2.17-2.1,3.85-4.23,3.85-46.68,0-93.59.68-140.4.68ZM516.52,418.02c26.02,0,52.18.92,78.18-.24,3.91-.4,6.81-1.14,6.81-5.21-.54-21.59-18.77-39.36-39.91-38.53-25.55-1.59-41.9,19.98-45.08,43.97Z"/>
</svg>