<?xml version="1.0" encoding="utf-8"?>
<!-- Generator: Adobe Illustrator 28.4.1, SVG Export Plug-In . SVG Version: 6.00 Build 0)  -->
<svg version="1.1" id="Layer_1" xmlns="http://www.w3.org/2000/svg" xmlns:xlink="http://www.w3.org/1999/xlink" x="0px" y="0px"
	 viewBox="0 0 800 800" style="enable-background:new 0 0 800 800;" xml:space="preserve">
<style type="text/css">
	.st0{fill:#001E36;}
	.st1{fill:#31A8FF;}
</style>
<path class="st0" d="M0,289.5c0-101.3,0-152,19.7-190.7c17.3-34,45-61.7,79.1-79.1C137.5,0,188.2,0,289.5,0h221
	c101.3,0,152,0,190.7,19.7c34,17.3,61.7,45,79.1,79.1C800,137.5,800,188.2,800,289.5v221c0,101.3,0,152-19.7,190.7
	c-17.3,34-45,61.7-79.1,79.1C662.5,800,611.8,800,510.5,800h-221c-101.3,0-152,0-190.7-19.7c-34-17.3-61.7-45-79.1-79.1
	C0,662.5,0,611.8,0,510.5V289.5z"/>
<path class="st1" d="M171.4,586.2V234.4c0-2.4,1-3.8,3.3-3.8c34.4,0,68.9-2.1,103.3-2.1c55.9,0,116.4,19.1,137.7,77.6
	c5,14.4,7.7,29.1,7.7,44.4c0,29.4-6.7,53.7-20,72.8c-37.2,53.5-101.8,52.6-159.7,52.6v109.7c0.5,3.2-2.3,4.8-5,4.8h-63.3
	C172.8,590.6,171.4,589.3,171.4,586.2z M244.1,296.6v114.9c22.9,1.7,47,1.9,69-5.5c24.3-7,37.7-28.1,37.7-53.3
	c0.7-21.5-11-42.2-31-49.9C298,293.7,267.6,293.2,244.1,296.6z"/>
<path class="st1" d="M631.3,388.8c-10.1-5.3-20.8-9.2-31.9-11.6c-14.3-3.4-70.5-15.1-70.6,14.3c0.5,16.4,26.6,24.5,38.1,29.2
	c40.5,13.9,86.2,38.7,85.3,88.6c1.2,62.1-59,87-110.6,87c-26.9,0.3-54.8-3.9-79.4-15.4c-2.3-1.2-3.9-3.9-3.8-6.6v-59.4
	c-0.3-2.4,2.3-4.5,4.3-2.8c24.1,14.6,52.6,21.6,80.5,22c12.3,0,36.7-1.2,36.5-19.3c0-17.3-29.2-25.3-40.8-29.7
	c-16.9-6-32.8-14.3-47.5-24.8c-20.5-14.6-33.4-38.1-33-63.8c-0.1-58.5,55.3-84.8,105.2-84.8c23.3-0.2,48.4,1.5,70.1,11
	c3.1,0.9,3.8,4.2,3.8,7.2v55.6C637.8,388.9,633.9,390.1,631.3,388.8z"/>
</svg>
