<?xml version="1.0" encoding="UTF-8"?>
<svg id="Layer_1" data-name="Layer 1" xmlns="http://www.w3.org/2000/svg" viewBox="0 0 800 800">
  <defs>
    <style>
      .cls-1 {
        fill: #00005b;
      }

      .cls-1, .cls-2 {
        stroke-width: 0px;
      }

      .cls-2 {
        fill: #99f;
      }
    </style>
  </defs>
  <path class="cls-1" d="M0,289.52c0-101.34,0-152.01,19.72-190.72,17.35-34.05,45.03-61.73,79.08-79.08C137.51,0,188.18,0,289.52,0h220.95c101.34,0,152.01,0,190.72,19.72,34.05,17.35,61.73,45.03,79.08,79.08,19.72,38.71,19.72,89.38,19.72,190.72v220.95c0,101.34,0,152.01-19.72,190.72-17.35,34.05-45.03,61.73-79.08,79.08-38.71,19.72-89.38,19.72-190.72,19.72h-220.95c-101.34,0-152.01,0-190.72-19.72-34.05-17.35-61.73-45.03-79.08-79.08C0,662.49,0,611.82,0,510.48v-220.95Z"/>
  <path class="cls-2" d="M200,544.89V230.2c0-2.14.88-3.36,2.93-3.36,30.23,0,60.45-1.83,90.69-1.83,49.06,0,102.2,17.1,120.82,69.42,4.39,12.84,6.73,25.99,6.73,39.76,0,26.3-5.85,48.01-17.55,65.14-32.68,47.84-89.34,47.1-140.12,47.1v98.17c.4,2.91-2.03,4.28-4.39,4.28h-55.58c-2.34,0-3.51-1.22-3.51-3.98ZM263.77,285.86v102.75c20.14,1.51,41.21,1.67,60.55-4.89,21.36-6.28,33.06-25.13,33.06-47.71.59-19.24-9.69-37.71-27.2-44.65-19.11-8.1-45.77-8.59-66.41-5.51Z"/>
  <path class="cls-2" d="M460.81,305.3h51.34c2.83.03,5.37,2.07,6.12,4.93,3.76,8.73,4.23,19.26,4.24,28.69,8.81-10.72,19.42-19.64,31.32-26.34,12.76-7.55,27.23-11.37,41.89-11.08,2.44-.36,4.59,1.89,4.24,4.43v59.58c0,2.3-1.58,3.45-4.71,3.45-21.73-1.57-55.56,3.8-71.35,21.67v154.91c0,2.96-1.26,4.43-3.77,4.43h-55.08c-2.71.4-5.09-2.14-4.71-4.93v-168.2c0-22.54.47-45.76-2.83-68.08-.51-2.06,1.37-3.96,3.3-3.45Z"/>
</svg>